<svg xmlns="http://www.w3.org/2000/svg" width="109.972" height="131.967" viewBox="0 0 109.972 131.967">
    <g data-name="Group 71">
        <g data-name="Group 70">
            <path data-name="Path 261" d="M138.975 0h-79.18A11 11 0 0 0 49 9a11 11 0 0 0-9 10.795v101.174a11.01 11.01 0 0 0 11 11h79.18a11 11 0 0 0 10.795-9 11 11 0 0 0 9-10.795V11a11.01 11.01 0 0 0-11-11zm-2.2 120.969a6.606 6.606 0 0 1-6.6 6.6H51a6.606 6.606 0 0 1-6.6-6.6V19.795A6.606 6.606 0 0 1 51 13.2h65.983v17.6a2.2 2.2 0 0 0 2.2 2.2h17.6zm-15.4-92.377V16.307l12.286 12.286zm24.194 83.579a6.589 6.589 0 0 1-4.4 6.194V30.792a2.2 2.2 0 0 0-.647-1.557L120.739 9.447a2.2 2.2 0 0 0-1.559-.647H53.6a6.589 6.589 0 0 1 6.194-4.4h79.18a6.606 6.606 0 0 1 6.6 6.6z" transform="translate(-40)" style="fill:#ad5bc1"/>
        </g>
    </g>
    <g data-name="Group 73">
        <g data-name="Group 72">
            <path data-name="Path 262" d="M195 72a11 11 0 1 0 11 11 11.01 11.01 0 0 0-11-11zm0 17.6a6.6 6.6 0 1 1 6.6-6.6 6.606 6.606 0 0 1-6.6 6.6z" transform="translate(-144.41 -52.205)" style="fill:#676767"/>
        </g>
    </g>
    <g data-name="Group 75">
        <g data-name="Group 74">
            <path data-name="Rectangle 1471" style="fill:#ad5bc1" d="M0 0h21.994v4.399H0z" transform="translate(10.997 48.388)"/>
        </g>
    </g>
    <g data-name="Group 77">
        <g data-name="Group 76">
            <path data-name="Rectangle 1472" style="fill:#ad5bc1" d="M0 0h6.598v4.399H0z" transform="translate(39.59 48.388)"/>
        </g>
    </g>
    <g data-name="Group 79">
        <g data-name="Group 78">
            <path data-name="Rectangle 1473" style="fill:#ad5bc1" d="M0 0h21.994v4.399H0z" transform="translate(54.986 48.388)"/>
        </g>
    </g>
    <g data-name="Group 81">
        <g data-name="Group 80">
            <path data-name="Rectangle 1474" style="fill:#ad5bc1" d="M0 0h6.598v4.399H0z" transform="translate(83.579 48.388)"/>
        </g>
    </g>
    <g data-name="Group 83">
        <g data-name="Group 82">
            <path data-name="Rectangle 1475" style="fill:#ad5bc1" d="M0 0h21.994v4.399H0z" transform="translate(10.997 57.186)"/>
        </g>
    </g>
    <g data-name="Group 85">
        <g data-name="Group 84">
            <path data-name="Rectangle 1476" style="fill:#ad5bc1" d="M0 0h6.598v4.399H0z" transform="translate(39.59 57.186)"/>
        </g>
    </g>
    <g data-name="Group 87">
        <g data-name="Group 86">
            <path data-name="Rectangle 1477" style="fill:#ad5bc1" d="M0 0h21.994v4.399H0z" transform="translate(54.986 57.186)"/>
        </g>
    </g>
    <g data-name="Group 89">
        <g data-name="Group 88">
            <path data-name="Rectangle 1478" style="fill:#ad5bc1" d="M0 0h6.598v4.399H0z" transform="translate(83.579 57.186)"/>
        </g>
    </g>
    <g data-name="Group 91">
        <g data-name="Group 90">
            <path data-name="Rectangle 1479" style="fill:#ad5bc1" d="M0 0h21.994v4.399H0z" transform="translate(10.997 65.983)"/>
        </g>
    </g>
    <g data-name="Group 93">
        <g data-name="Group 92">
            <path data-name="Rectangle 1480" style="fill:#ad5bc1" d="M0 0h6.598v4.399H0z" transform="translate(39.59 65.983)"/>
        </g>
    </g>
    <g data-name="Group 95">
        <g data-name="Group 94">
            <path data-name="Rectangle 1481" style="fill:#ad5bc1" d="M0 0h21.994v4.399H0z" transform="translate(54.986 65.983)"/>
        </g>
    </g>
    <g data-name="Group 97">
        <g data-name="Group 96">
            <path data-name="Rectangle 1482" style="fill:#ad5bc1" d="M0 0h6.598v4.399H0z" transform="translate(83.579 65.983)"/>
        </g>
    </g>
    <g data-name="Group 99">
        <g data-name="Group 98">
            <path data-name="Rectangle 1483" style="fill:#ad5bc1" d="M0 0h21.994v4.399H0z" transform="translate(10.997 74.781)"/>
        </g>
    </g>
    <g data-name="Group 101">
        <g data-name="Group 100">
            <path data-name="Rectangle 1484" style="fill:#ad5bc1" d="M0 0h6.598v4.399H0z" transform="translate(39.59 74.781)"/>
        </g>
    </g>
    <g data-name="Group 103">
        <g data-name="Group 102">
            <path data-name="Rectangle 1485" style="fill:#ad5bc1" d="M0 0h21.994v4.399H0z" transform="translate(54.986 74.781)"/>
        </g>
    </g>
    <g data-name="Group 105">
        <g data-name="Group 104">
            <path data-name="Rectangle 1486" style="fill:#ad5bc1" d="M0 0h6.598v4.399H0z" transform="translate(83.579 74.781)"/>
        </g>
    </g>
    <g data-name="Group 107">
        <g data-name="Group 106">
            <path data-name="Rectangle 1487" style="fill:#ad5bc1" d="M0 0h21.994v4.399H0z" transform="translate(10.997 87.978)"/>
        </g>
    </g>
    <g data-name="Group 109">
        <g data-name="Group 108">
            <path data-name="Rectangle 1488" style="fill:#ad5bc1" d="M0 0h6.598v4.399H0z" transform="translate(39.59 87.978)"/>
        </g>
    </g>
    <g data-name="Group 111">
        <g data-name="Group 110">
            <path data-name="Rectangle 1489" style="fill:#ad5bc1" d="M0 0h21.994v4.399H0z" transform="translate(54.986 87.978)"/>
        </g>
    </g>
    <g data-name="Group 113">
        <g data-name="Group 112">
            <path data-name="Rectangle 1490" style="fill:#ad5bc1" d="M0 0h6.598v4.399H0z" transform="translate(83.579 87.978)"/>
        </g>
    </g>
    <g data-name="Group 115">
        <g data-name="Group 114">
            <path data-name="Rectangle 1491" style="fill:#ad5bc1" d="M0 0h21.994v4.399H0z" transform="translate(10.997 96.776)"/>
        </g>
    </g>
    <g data-name="Group 117">
        <g data-name="Group 116">
            <path data-name="Rectangle 1492" style="fill:#ad5bc1" d="M0 0h6.598v4.399H0z" transform="translate(39.59 96.776)"/>
        </g>
    </g>
    <g data-name="Group 119">
        <g data-name="Group 118">
            <path data-name="Rectangle 1493" style="fill:#ad5bc1" d="M0 0h21.994v4.399H0z" transform="translate(54.986 96.776)"/>
        </g>
    </g>
    <g data-name="Group 121">
        <g data-name="Group 120">
            <path data-name="Rectangle 1494" style="fill:#ad5bc1" d="M0 0h6.598v4.399H0z" transform="translate(83.579 96.776)"/>
        </g>
    </g>
    <g data-name="Group 123">
        <g data-name="Group 122">
            <path data-name="Rectangle 1495" style="fill:#ad5bc1" d="M0 0h21.994v4.399H0z" transform="translate(10.997 105.573)"/>
        </g>
    </g>
    <g data-name="Group 125">
        <g data-name="Group 124">
            <path data-name="Rectangle 1496" style="fill:#ad5bc1" d="M0 0h6.598v4.399H0z" transform="translate(39.59 105.573)"/>
        </g>
    </g>
    <g data-name="Group 127">
        <g data-name="Group 126">
            <path data-name="Rectangle 1497" style="fill:#ad5bc1" d="M0 0h21.994v4.399H0z" transform="translate(54.986 105.573)"/>
        </g>
    </g>
    <g data-name="Group 129">
        <g data-name="Group 128">
            <path data-name="Rectangle 1498" style="fill:#ad5bc1" d="M0 0h6.598v4.399H0z" transform="translate(83.579 105.573)"/>
        </g>
    </g>
    <g data-name="Group 131">
        <g data-name="Group 130">
            <path data-name="Rectangle 1499" style="fill:#ad5bc1" d="M0 0h21.994v4.399H0z" transform="translate(10.997 114.371)"/>
        </g>
    </g>
    <g data-name="Group 133">
        <g data-name="Group 132">
            <path data-name="Rectangle 1500" style="fill:#ad5bc1" d="M0 0h6.598v4.399H0z" transform="translate(39.59 114.371)"/>
        </g>
    </g>
    <g data-name="Group 135">
        <g data-name="Group 134">
            <path data-name="Rectangle 1501" style="fill:#ad5bc1" d="M0 0h21.994v4.399H0z" transform="translate(54.986 114.371)"/>
        </g>
    </g>
    <g data-name="Group 137">
        <g data-name="Group 136">
            <path data-name="Rectangle 1502" style="fill:#ad5bc1" d="M0 0h6.598v4.399H0z" transform="translate(83.579 114.371)"/>
        </g>
    </g>
</svg>
