<svg xmlns="http://www.w3.org/2000/svg" width="90" height="90" viewBox="0 0 90 90">
    <g data-name="Group 198" transform="translate(-93 -269)">
        <rect data-name="Rectangle 1463" width="90" height="90" rx="45" transform="translate(93 269)" style="fill:#e3e3e3"/>
        <g data-name="Group 210">
            <path data-name="Path 250" d="M36.356 41v-.026a1.063 1.063 0 0 0-.026-.13 1.069 1.069 0 0 0-.041-.119l-.014-.033q-.019-.042-.041-.083l-.02-.036-.011-.019a1.195 1.195 0 0 0-.051-.073l-.009-.013a1.046 1.046 0 0 0-.086-.1l-.018-.017a1.087 1.087 0 0 0-.083-.072l-.022-.017a1.092 1.092 0 0 0-.119-.078l-15.85-9.01 9.126-5.747 15.3 8.7-6.444 4.057A1.076 1.076 0 1 0 39.089 40l7.964-5.015a1.076 1.076 0 0 0-.042-1.846l-17.422-9.9a1.076 1.076 0 0 0-1.1.025L17.3 30.306h-.007L11.7 33.829h-.008L.505 40.882a1.076 1.076 0 0 0 .042 1.846l17.422 9.9a1.075 1.075 0 0 0 1.1-.025l7.964-5.015a1.076 1.076 0 1 0-1.146-1.821l-7.419 4.672-15.3-8.7L12.3 36l16.318 9.275v12.283a1.076 1.076 0 0 0 1.649.91l5.6-3.524a1.076 1.076 0 0 0 .5-.91V41.105L36.356 41zm-5.588 14.609V44.648a1.076 1.076 0 0 0-.544-.935L14.364 34.7l3.53-2.223 15.3 8.7-1.34.843A1.076 1.076 0 1 0 33 43.836l1.211-.763v10.368z" transform="translate(114.231 269.454)" style="fill:#676767"/>
            <path data-name="Path 251" d="m356.442 155.307-7.964 5.015a1.076 1.076 0 1 0 1.146 1.821l7.964-5.015a1.076 1.076 0 0 0-1.146-1.821z" transform="translate(-196.304 151.617)" style="fill:#676767"/>
            <path data-name="Path 252" d="m25.889 231.912-7.419 4.672L1.608 227a1.076 1.076 0 1 0-1.064 1.87l17.422 9.9a1.075 1.075 0 0 0 1.1-.025l7.964-5.015a1.076 1.076 0 0 0-1.146-1.821z" transform="translate(114.233 87.615)" style="fill:#676767"/>
            <path data-name="Path 253" d="m356.442 195.307-7.964 5.015a1.076 1.076 0 1 0 1.146 1.821l7.964-5.015a1.076 1.076 0 0 0-1.146-1.821z" transform="translate(-196.304 115.921)" style="fill:#676767"/>
            <path data-name="Path 254" d="m25.889 271.912-7.419 4.672L1.608 267a1.076 1.076 0 1 0-1.064 1.87l17.422 9.9a1.075 1.075 0 0 0 1.1-.025l7.964-5.015a1.076 1.076 0 0 0-1.146-1.821z" transform="translate(114.233 51.919)" style="fill:#676767"/>
            <path data-name="Path 255" d="m356.442 235.307-7.964 5.015a1.076 1.076 0 1 0 1.146 1.821l7.964-5.015a1.076 1.076 0 0 0-1.146-1.821z" transform="translate(-196.304 80.224)" style="fill:#676767"/>
            <path data-name="Path 256" d="m25.889 311.912-7.419 4.672L1.608 307a1.076 1.076 0 1 0-1.064 1.87l17.422 9.9a1.076 1.076 0 0 0 1.1-.025l7.964-5.015a1.076 1.076 0 0 0-1.146-1.821z" transform="translate(114.233 16.222)" style="fill:#676767"/>
        </g>
    </g>
</svg>
