<svg data-name="Group 335" xmlns="http://www.w3.org/2000/svg" width="205.61" height="205.61" viewBox="0 0 205.61 205.61">
    <path data-name="Path 773" d="m5.558 0 117.214 2 6.262 71.97L0 73.254z" transform="rotate(-23 238.372 -25.933)" style="fill:#fff"/>
    <g data-name="ticket (1)">
        <path data-name="Path 772" d="M149.957 59.568a12.211 12.211 0 0 1 3.6-8.693l3.249-3.248L109.18 0l-3.249 3.249a12.211 12.211 0 0 1-8.693 3.6 12.213 12.213 0 0 1-8.693-3.6L85.3 0 0 85.3l3.249 3.248a12.211 12.211 0 0 1 3.6 8.693 12.211 12.211 0 0 1-3.6 8.693L0 109.18l47.626 47.626 3.249-3.249a12.3 12.3 0 0 1 17.385 0l3.248 3.249 85.3-85.3-3.249-3.248a12.211 12.211 0 0 1-3.6-8.693zm-17.512 7.208.6 2.5-63.766 63.768-2.5-.6a31.061 31.061 0 0 0-14.416 0l-2.5.6-26.1-26.1.6-2.5a31.066 31.066 0 0 0 0-14.417l-.6-2.5 63.765-63.765 2.5.6a31.029 31.029 0 0 0 14.416 0l2.5-.6 26.1 26.1-.6 2.5a31.066 31.066 0 0 0 0 14.417zm0 0" transform="rotate(23 30.617 150.468)" style="fill:#62c4e9"/>
    </g>
    <text transform="rotate(-20 380.545 -141.392)" style="fill:#676767;font-size:22px;font-family:Arial-Black,Arial;font-weight:800"><tspan x="0" y="0">SOLD</tspan></text>
</svg>
