<svg data-name="Group 332" xmlns="http://www.w3.org/2000/svg" width="132.588" height="135.773" viewBox="0 0 132.588 135.773">
    <path data-name="Path 767" d="M0 372.879v38.844h23.824v-38.844zm0 0" transform="translate(0 -283.719)" style="fill:#676767"/>
    <path data-name="Path 768" d="M253.495 352.664 212.32 383.74h-36.513l-23.307-7.769v-38.844l4.04-3.574a23.4 23.4 0 0 1 30.765 0l1.865 1.632a7.656 7.656 0 0 0 5.128 1.942h24.238A15.583 15.583 0 0 1 203 352.664h-19.425v7.769h30.841l17.87-11.733a15.454 15.454 0 0 1 21.209 3.963zm0 0" transform="translate(-120.907 -247.966)" style="fill:#676767"/>
    <g data-name="Group 331">
        <path data-name="Path 765" d="m92.3 17.109.056-.16L52.016 0 5.446 17.124l-.131-.056v.11h-.006l.006.018v46.866L45.7 81.088l46.687-17.027V17.069zM51.978 3.332 65.659 8.6 22.065 24.176l-12.633-5.36zm-7.719 73.915-15.125-6.568-7.591-3.067L8.2 61.951V21.63l13.209 5.6v11.962l1.177-.353.8 1.176 1.108-.278 1.073 1.219.936-.347 2.211 1.612V30.033l1.176.5 14.374 6.395v40.32zM45.7 34.206l-14.045-6.258 42.67-15.855 14.3 6.573zm43.8 27.745-42.359 15.3V36.927L89.5 21.629V61.95z" transform="translate(32.238)" style="fill:#f80"/>
    </g>
</svg>
