<svg xmlns="http://www.w3.org/2000/svg" width="172.442" height="151.427" viewBox="0 0 172.442 151.427">
    <g data-name="Group 333">
        <path data-name="Path 765" d="m137.13 26.627.085-.25L76.089 0 5.517 26.651l-.2-.087v.171l-.009.005.009.029V99.7l61.2 26.5 70.752-26.5V26.565zM76.032 5.186l20.733 8.2L30.7 37.627l-19.144-8.343zm-11.7 115.039L41.414 110l-11.5-4.774-20.223-8.809V33.663l20.016 8.722V61l1.784-.55 1.206 1.83 1.678-.433L36 63.74l1.419-.54 3.351 2.509V46.743l1.782.777 21.783 9.952v62.752zm2.186-66.988L45.234 43.5 109.9 18.821l21.671 10.23zm66.382 43.18-64.194 23.807V57.472l64.186-23.81v62.753h.005z" transform="translate(35.174)" style="fill:#ffc600"/>
        <path d="M71.516 93.51c1.683-5.431 7.171-24.352 7.171-31.324V37.975a5.842 5.842 0 1 0-11.683 0V48.3a1.1 1.1 0 1 1-2.2 0V32.165a5.843 5.843 0 1 0-11.684 0v11.5a1.1 1.1 0 1 1-2.2 0v-16.13a5.842 5.842 0 1 0-11.683 0V39.04a1.1 1.1 0 0 1-2.2 0V5.915a5.843 5.843 0 1 0-11.685 0v51.293a1.1 1.1 0 0 1-1.927.723L9.745 42.278l-.161-.167a5.919 5.919 0 0 0-4.05-1.622H5.5a5.838 5.838 0 0 0-4.1 1.689c-1.348 1.348-2.4 3.926.226 8.55 3.988 7.015 8.353 13.672 12.22 19.56 2.875 4.383 5.591 8.522 7.616 12.013 1.294 2.234 3.994 8.1 5.487 11.208h44.567z" transform="rotate(41 -8.417 96.657)" style="fill:#676767"/>
    </g>
</svg>
