<svg data-name="Group 334" xmlns="http://www.w3.org/2000/svg" width="163.96" height="168.454" viewBox="0 0 163.96 168.454">
    <path data-name="Path 765" d="m126.231 24.426.078-.229L70.237 0 5.5 24.448l-.183-.08v.157h-.008l.008.026v66.9l56.139 24.307 64.9-24.309v-67.08zM70.184 4.757 89.2 12.281 28.6 34.516l-17.56-7.653zm-10.73 105.527-21.026-9.377-10.551-4.379-18.548-8.083V30.88l18.361 8v17.073l1.636-.5 1.106 1.679 1.54-.4 1.491 1.74 1.3-.5 3.074 2.3v-17.4l1.634.713 19.984 9.135v57.564zm2.006-61.45L41.933 39.9l59.316-22.635 19.879 9.384zm60.888 39.611-58.884 21.839V52.72l58.879-21.842v57.566z" transform="translate(-5.309 52.687)" style="fill:#8fcf57"/>
    <path data-name="back (1)" d="m0 36 36 36V58.686a1.891 1.891 0 0 1 1.89-1.89h5.085A69.636 69.636 0 0 1 105.2 94.79l.74 1.437V81.368a66.235 66.235 0 0 0-66.16-66.159h-1.89a1.891 1.891 0 0 1-1.89-1.89V0zm0 0" transform="rotate(39 40.826 115.319)" style="fill:#676767"/>
</svg>
