<svg data-name="Group 1314" xmlns="http://www.w3.org/2000/svg" width="195.233" height="172.219" viewBox="0 0 195.233 172.219">
    <g data-name="Group 339">
        <g data-name="Group 336">
            <path data-name="Path 773" d="m4.656 0 98.178 1.674 5.245 60.282L0 61.357z" transform="rotate(-23 200.633 -21.525)" style="fill:#fff"/>
            <g data-name="ticket (1)">
                <path data-name="Path 772" d="M125.6 49.894a10.228 10.228 0 0 1 3.015-7.281l2.722-2.721L91.449 0l-2.722 2.722a10.228 10.228 0 0 1-7.281 3.015 10.229 10.229 0 0 1-7.281-3.015L71.445 0 0 71.445l2.722 2.721a10.228 10.228 0 0 1 3.015 7.281 10.228 10.228 0 0 1-3.015 7.281L0 91.449l39.892 39.892 2.722-2.722a10.3 10.3 0 0 1 14.562 0l2.721 2.722L131.341 59.9l-2.722-2.721a10.228 10.228 0 0 1-3.015-7.281zm-14.668 6.037.5 2.1-53.41 53.41-2.1-.5a26.016 26.016 0 0 0-12.075 0l-2.1.5L19.9 89.58l.5-2.1a26.021 26.021 0 0 0 0-12.076l-.5-2.1L73.313 19.9l2.1.5a25.99 25.99 0 0 0 12.075 0l2.1-.5 21.85 21.86-.5 2.1a26.021 26.021 0 0 0 0 12.076zm0 0" transform="rotate(23 25.645 126.032)" style="fill:#9862e9"/>
            </g>
            <path data-name="Rectangle 1545" transform="rotate(-24 243.302 -50.796)" style="fill:#676767" d="M0 0h42v4H0z"/>
            <path data-name="Rectangle 1546" transform="rotate(-24 263.121 -57.863)" style="fill:#676767" d="M0 0h42v2H0z"/>
        </g>
    </g>
    <circle data-name="Ellipse 257" cx="41.135" cy="41.135" transform="translate(73.711 28.833)" style="fill:#fff" r="41.135"/>
    <g data-name="Group 337">
        <path data-name="Path 774" d="M97.758 48.879A48.879 48.879 0 1 0 48.88 97.757a48.881 48.881 0 0 0 48.878-48.878zM48.88 85.537a36.658 36.658 0 1 1 36.66-36.658 36.7 36.7 0 0 1-36.66 36.658z" transform="translate(64.889 20.789)" style="fill:#676767"/>
        <path data-name="Path 775" d="m343.42 326.148-29.9-29.905a57.559 57.559 0 0 1-17.281 17.279l29.905 29.905a12.218 12.218 0 0 0 17.279-17.279z" transform="translate(-151.768 -195.874)" style="fill:#676767"/>
    </g>
    <path data-name="Rectangle 1547" transform="rotate(-24 215.169 -128.032)" style="fill:#676767" d="M0 0h61v10H0z"/>
    <path data-name="Rectangle 1548" transform="rotate(-24 249.95 -139.287)" style="fill:#676767" d="M0 0h41v4H0z"/>
</svg>
