<svg xmlns="http://www.w3.org/2000/svg" width="51.37" height="48.199" viewBox="0 0 51.37 48.199">
    <g data-name="Icon open-transfer" style="fill:none">
        <path d="M31.028 0v5.171H0v5.171h31.028v5.171L41.37 7.757zM10.343 20.685 0 28.442 10.343 36.2v-5.172H41.37v-5.172H10.343z" style="stroke:none" transform="translate(5 6)"/>
        <path d="M31.028 0v5.171H0v5.172h31.028v5.17L41.37 7.758 31.028 0M10.343 20.685 0 28.442l10.343 7.757v-5.171H41.37v-5.172H10.343v-5.17M28.028-6 46.37 7.757 28.028 21.514v-8.171H-3V2.17h31.028V-6zM13.343 14.685v8.171H44.37v11.172H13.343v8.17L-5 28.443l18.343-13.757z" style="fill:#000;stroke:none" transform="translate(5 6)"/>
    </g>
</svg>
