<svg xmlns="http://www.w3.org/2000/svg" width="58.877" height="37.719" viewBox="0 0 58.877 37.719">
    <g data-name="Subtraction 8" style="fill:#feab3a">
        <path d="M55.832 30.559H12a4.504 4.504 0 0 1-4.5-4.5v-3.95c3.182-.417 5.654-3.304 5.654-6.792S10.682 8.942 7.5 8.525V6C7.5 3.52 9.52 1.5 12 1.5h43.832c2.481 0 4.5 2.019 4.5 4.5v2.661c-2.834.72-4.947 3.432-4.947 6.656 0 3.225 2.113 5.937 4.947 6.656v4.086c0 2.481-2.019 4.5-4.5 4.5z" style="stroke:none" transform="rotate(-6.02 58.4 59.901)"/>
        <path d="M55.832 29.059c1.654 0 3-1.346 3-3v-3.016c-2.899-1.245-4.947-4.24-4.947-7.726 0-3.486 2.048-6.48 4.947-7.725V6c0-1.654-1.346-3-3-3H12c-1.654 0-3 1.346-3 3v1.328c3.268 1.036 5.654 4.225 5.654 7.99 0 3.763-2.386 6.953-5.654 7.988v2.753c0 1.654 1.346 3 3 3h43.832m0 3H12c-3.308 0-6-2.691-6-6v-5.453c.23.036.468.054.707.054 2.728 0 4.947-2.397 4.947-5.343s-2.22-5.343-4.947-5.343c-.236 0-.474.018-.707.054V6c0-3.308 2.692-6 6-6h43.832c3.308 0 6 2.692 6 6v3.974c-2.729 0-4.947 2.397-4.947 5.343s2.22 5.343 4.947 5.343v5.4c0 3.308-2.692 5.999-6 5.999z" style="fill:#000;stroke:none" transform="rotate(-6.02 58.4 59.901)"/>
    </g>
</svg>
