<svg xmlns="http://www.w3.org/2000/svg" width="58.877" height="37.719" viewBox="0 0 58.877 37.719">
    <g data-name="Subtraction 8" style="fill:none">
        <path d="M55.832 32.059H12a6.006 6.006 0 0 1-6-6v-5.453a4.642 4.642 0 0 0 .707.054 5.163 5.163 0 0 0 4.947-5.343 5.163 5.163 0 0 0-4.947-5.343 4.646 4.646 0 0 0-.707.054V6a6.007 6.007 0 0 1 6-6h43.832a6.007 6.007 0 0 1 6 6v3.974a5.162 5.162 0 0 0-4.946 5.343 5.162 5.162 0 0 0 4.946 5.343v5.4a6.006 6.006 0 0 1-6 5.999z" style="stroke:none" transform="rotate(-6.02 58.4 59.901)"/>
        <path d="M55.832 29.059c1.654 0 3-1.346 3-3v-3.016c-2.899-1.245-4.947-4.24-4.947-7.726 0-3.486 2.048-6.48 4.947-7.725V6c0-1.654-1.346-3-3-3H12c-1.654 0-3 1.346-3 3v1.328c3.268 1.036 5.654 4.225 5.654 7.99 0 3.763-2.386 6.953-5.654 7.988v2.753c0 1.654 1.346 3 3 3h43.832m0 3H12c-3.308 0-6-2.691-6-6v-5.453c.23.036.468.054.707.054 2.728 0 4.947-2.397 4.947-5.343s-2.22-5.343-4.947-5.343c-.236 0-.474.018-.707.054V6c0-3.308 2.692-6 6-6h43.832c3.308 0 6 2.692 6 6v3.974c-2.729 0-4.947 2.397-4.947 5.343s2.22 5.343 4.947 5.343v5.4c0 3.308-2.692 5.999-6 5.999z" style="fill:#000;stroke:none" transform="rotate(-6.02 58.4 59.901)"/>
    </g>
</svg>
