<svg xmlns="http://www.w3.org/2000/svg" width="144.518" height="110.072" viewBox="0 0 144.518 110.072">
    <path d="M974.384 660.418s-10.334-24.166-18.684-38.343c.655-7.494 1.116-23.105-5.26-29.647a10.034 10.034 0 0 0-8.924-2.925c-5.869.81-10.2 3.143-12.843 6.94a15.475 15.475 0 0 0-2.637 7.173 106.36 106.36 0 0 0-13.13-2.169s-.394-16.621-2.578-17.629c-1.146-.533-9.537 7.569-16.854 15.777l.014-.032a.227.227 0 0 0-.02.038c-2.041 2.3-4.005 4.589-5.692 6.717a61.664 61.664 0 0 1-8.352 6.4c-23.569 23.691-27.492 54.878-30.306 62.927s-19.25 18.09-19.25 18.09l16.645.132s14.858-30.793 18.225-45.456c2.578 7.176-15.225 45.323-15.225 45.323s9.677.3 10.665 0 12.781-41.986 12.513-54.344c3.339 11.348-6.857 54.476-6.857 54.476h17.726c-9.113-7.281-4.93-20.043-5.916-41.279-.655-14.028 4.141-27.84 7.461-35.628 5.358.789 16.11-1.38 16.11-1.38a61.7 61.7 0 0 0 .25 13.17 15.8 15.8 0 0 0-10.186 2.8c-3.7 2.722-6 7.135-6.792 13.117a10.532 10.532 0 0 0 2.864 9.111c4.587 4.656 13.706 5.751 21.224 5.751a92.715 92.715 0 0 0 11.111-.712c15.842 9.624 40.89 17.587 40.89 17.587zm-83.672-10.082a5.575 5.575 0 0 1-1.495-5.025c.609-4.579 2.229-7.889 4.81-9.79a11.37 11.37 0 0 1 8.042-1.844l.1-.554a37.567 37.567 0 0 0 10.937 20.881c.185.162.395.308.592.479-7.755.455-18.811.096-22.986-4.146zm57.454-37.624a53.653 53.653 0 0 0-17.495-7.912 10.978 10.978 0 0 1 1.856-5.532 13.388 13.388 0 0 1 9.622-4.958 5.307 5.307 0 0 1 4.911 1.534c3.55 3.647 4.329 12.454 4.193 19.881a21.438 21.438 0 0 0-3.086-3.012z" transform="translate(-829.866 -583.792)" style="fill-rule:evenodd"/>
</svg>
