<svg xmlns="http://www.w3.org/2000/svg" width="149.488" height="114.022" viewBox="0 0 149.488 114.022">
    <path d="M361.889 329.847c-2.635 4.339-5.8 10.452-5.688 14.882-4.6-2.749-.576-11.283 2.633-16.71-.106-.053-.2-.12-.3-.183a44.218 44.218 0 0 0-9.042-3.5c-1.323 4.954-2.731 12.168-1.262 16.546-5.35-1.315-3.781-11.117-2.227-17.236a23.074 23.074 0 0 0-11.46 1.266c.941 5.037 2.761 12.083 5.928 15.383-5.171 1.067-7.934-7.676-9.23-13.852a37.867 37.867 0 0 0-7.494 5.5c2.169 4.579 5.522 10.509 9.236 12.819-4.479 2.185-9.052-4.652-11.88-10.19a121.72 121.72 0 0 0-12.793 16.566 31.162 31.162 0 0 0-4.769-.16 31.486 31.486 0 0 0-4.853.16 122.511 122.511 0 0 0-12.8-16.566c-2.842 5.534-7.4 12.369-11.888 10.184 3.714-2.309 7.066-8.245 9.234-12.819a38.009 38.009 0 0 0-7.494-5.494c-1.3 6.187-4.063 14.923-9.243 13.856 3.177-3.307 4.993-10.36 5.936-15.383a23.116 23.116 0 0 0-11.462-1.264c1.54 6.114 3.11 15.919-2.217 17.234 1.455-4.378.047-11.592-1.266-16.544a44.373 44.373 0 0 0-9.038 3.5c-.106.057-.2.13-.3.183 3.219 5.427 7.244 13.961 2.637 16.71.114-4.427-3.043-10.545-5.686-14.882-17.369 11.805-20.51 39.326-11.271 51.922 2.925 3.83 13.935 16.136 24.944 6.808s.777-21.563-3.964-22.607c-1.972 5.488 3.617 10.876-1.718 10.366-13.073-1.9-13.243-15.018 1.722-26.062 13.42-9.322 24.257 10.354 24.257 10.354s-16.513-10.012-22.536-6.731.341 4.832 2.761 9.139 14.1 9.5 12.9 13.294c-2.063 17.775 11.7 29.343 13.762 34.175s3.441 26.728 16.5 26.921h2.075c13.06-.2 14.436-22.088 16.5-26.921s15.828-16.411 13.767-34.175c-1.2-3.8 10.492-8.975 12.9-13.288s8.784-5.865 2.761-9.139-22.534 6.733-22.534 6.733 10.847-19.678 24.257-10.354c14.967 11.044 14.791 24.161 1.722 26.058-5.325.519.247-4.875-1.722-10.354-4.733 1.037-14.965 13.288-3.956 22.607s22.019-2.958 24.932-6.808c9.24-12.618 6.092-40.143-11.271-51.944zm-88.249 40.264c-1.9-.394-10.989-6.849-12.227-8.9a27.758 27.758 0 0 1-2.862-4.755c.9-2.564 18.163 4.315 18.163 7.958.005 2.542-.374 6.265-3.074 5.697zm10.255 32.8c-1.491.712-6.589-7.944-7.851-11.164s1.183-6.656 3.514-6.719c1.45 1.118 7.6 16.329 4.333 17.883zm16.893 31.554c-2.008.432-5.768-2.329-5.7-4.045s2.978-1.306 3.688-.933 4.033 4.552 2.012 4.972zm5.421 0c-2-.42 1.3-4.6 2.014-4.978s3.623-.789 3.688.933-3.692 4.471-5.705 4.039zm42.233-78.011a28.594 28.594 0 0 1-2.871 4.753c-1.225 2.055-10.32 8.5-12.227 8.9-2.7.576-3.086-3.155-3.086-5.7.012-3.648 17.278-10.523 18.181-7.961zm-17.493 35.3c-1.258 3.224-6.342 11.876-7.847 11.164-3.27-1.554 2.885-16.763 4.339-17.883 2.333.051 4.769 3.487 3.5 6.711z" transform="translate(-228.748 -323.41)" style="fill-rule:evenodd"/>
</svg>
