<svg xmlns="http://www.w3.org/2000/svg" width="49.391" height="43.011" viewBox="0 0 49.391 43.011">
    <defs>
        <style>
            .cls-1{fill:#fff}.cls-2{fill:none;stroke:#fff;stroke-width:4px}
        </style>
    </defs>
    <g id="Group_294" transform="translate(2.807 2.807)">
        <path id="Icon_awesome-ticket-alt" d="M30.044 10.925a2.731 2.731 0 0 0 2.731 2.731v5.462a2.731 2.731 0 0 1-2.731 2.731H2.731A2.731 2.731 0 0 1 0 19.119v-5.463a2.545 2.545 0 0 0 2.731-2.731A2.731 2.731 0 0 0 0 8.194V2.731A2.731 2.731 0 0 1 2.731 0h27.313a2.731 2.731 0 0 1 2.731 2.731v5.463a2.731 2.731 0 0 0-2.731 2.731z" class="cls-1" transform="rotate(-25.97 39.982 -8.013)"/>
        <path id="Icon_awesome-ticket-alt-2" d="M30.044 10.925a2.731 2.731 0 0 0 2.731 2.731v5.462a2.731 2.731 0 0 1-2.731 2.731H2.731A2.731 2.731 0 0 1 0 19.119v-5.463a2.545 2.545 0 0 0 2.731-2.731A2.731 2.731 0 0 0 0 8.194V2.731A2.731 2.731 0 0 1 2.731 0h27.313a2.731 2.731 0 0 1 2.731 2.731v5.463a2.731 2.731 0 0 0-2.731 2.731z" class="cls-2" transform="rotate(-38 29.288 10.08)"/>
    </g>
</svg>
