<svg xmlns="http://www.w3.org/2000/svg" width="41.005" height="41.005" viewBox="0 0 41.005 41.005">
    <path data-name="Rectangle 557" transform="translate(0 .005)" style="fill:none" d="M0 0h41v41H0z"/>
    <path data-name="Path 149" d="M5.126 12.814v23.065h30.753V12.814zm28.19-7.688h5.126A2.421 2.421 0 0 1 41 7.688v30.754A2.421 2.421 0 0 1 38.442 41H2.563A2.421 2.421 0 0 1 0 38.442V7.688a2.421 2.421 0 0 1 2.563-2.562h5.125V2.563A2.421 2.421 0 0 1 10.251 0a2.421 2.421 0 0 1 2.563 2.563v2.563h15.377V2.563a2.563 2.563 0 0 1 5.126 0zm-2.562 25.628h-5.126v-5.126h5.126zm-7.688 0H17.94v-5.126h5.126zm7.688-7.688h-5.126V17.94h5.126zm-7.688 0H17.94V17.94h5.126zm-7.688 7.688h-5.127v-5.126h5.126z" style="fill:#9e1f63;fill-rule:evenodd"/>
</svg>
