<svg xmlns="http://www.w3.org/2000/svg" width="132.82" height="112.636" viewBox="0 0 132.82 112.636">
    <path d="M791.407 399.939a43.637 43.637 0 0 0-6.486 0 23.076 23.076 0 0 0-.643-3.717 36.274 36.274 0 0 1 4.818-1.7 24.48 24.48 0 0 1 24 5.427 3.53 3.53 0 0 0 4.684-5.283 31.554 31.554 0 0 0-30.542-6.954 42.587 42.587 0 0 0-4.634 1.564c7.1-4.978 14.475-14.907 7.567-20.857 3.374-2.72 5.808-8.283 5.808-14.594a25.668 25.668 0 0 0-7.415-18.288 28.374 28.374 0 0 0-10.413-6.508 36.357 36.357 0 0 0-17.021-2.5.968.968 0 0 0-.891.71.9.9 0 0 0 .451 1.047s.316.211 1.487.832c4.4 2.333 16.625 9.874 16.726 14.213.026 1.108-1.237 2.045-3.353.179-1.765-1.56-6.877-4.824-11.227-4.826a1.043 1.043 0 0 0-.986.479.969.969 0 0 0 .219 1.1c3.078 3.339 7.1 6.885 8.441 11.807.893 3.282-.047 12.083 5.847 16.081a24.04 24.04 0 0 0-5.569 13.17 23.139 23.139 0 0 0-9.689-2.483v-4.13a2.309 2.309 0 1 0-4.619 0v4.116h-10.854v-4.114a2.311 2.311 0 0 0-4.621 0v4.13a23.124 23.124 0 0 0-9.687 2.483 24.035 24.035 0 0 0-5.572-13.17c5.895-4 4.956-12.8 5.847-16.081 1.339-4.93 5.362-8.468 8.441-11.807a.964.964 0 0 0 .219-1.1 1.041 1.041 0 0 0-.986-.479c-4.352 0-9.466 3.266-11.227 4.826-2.112 1.866-3.372.929-3.353-.179.1-4.339 12.322-11.88 16.728-14.213 1.17-.621 1.479-.828 1.487-.832a.907.907 0 0 0 .451-1.047.968.968 0 0 0-.891-.71 36.36 36.36 0 0 0-17.024 2.5 28.35 28.35 0 0 0-10.411 6.508 25.668 25.668 0 0 0-7.382 18.305c0 6.3 2.434 11.87 5.808 14.594-6.9 5.95.463 15.88 7.569 20.857a42.615 42.615 0 0 0-4.634-1.564 31.554 31.554 0 0 0-30.547 6.936 3.528 3.528 0 1 0 4.682 5.278 24.487 24.487 0 0 1 24-5.43 36.5 36.5 0 0 1 4.816 1.7 23.067 23.067 0 0 0-.643 3.717 43.617 43.617 0 0 0-6.484 0 31.554 31.554 0 0 0-26.4 16.852 3.529 3.529 0 1 0 6.19 3.388 24.455 24.455 0 0 1 20.538-13.188 36.5 36.5 0 0 1 6.609.067c.128.58.276 1.152.448 1.714a20.175 20.175 0 0 0-12.089 6.705c-4.035 5.066-4.648 12.154-1.824 21.064a3.528 3.528 0 0 0 6.727-2.13c-2.067-6.522-1.864-11.409.605-14.525 2.4-3.029 6.6-4.122 9.805-4.5a23.2 23.2 0 0 0 19.009 9.872h18.479a23.194 23.194 0 0 0 19-9.861c3.2.381 7.409 1.473 9.8 4.475 2.481 3.114 2.688 8.007.617 14.54a3.529 3.529 0 0 0 6.729 2.13c2.824-8.91 2.211-16-1.824-21.064a20.183 20.183 0 0 0-12.089-6.705q.255-.846.448-1.72a36.957 36.957 0 0 1 6.39-.079 24.47 24.47 0 0 1 20.755 13.213 3.528 3.528 0 1 0 6.19-3.386 31.554 31.554 0 0 0-26.4-16.859z" transform="translate(-686.142 -326.369)" style="fill-rule:evenodd"/>
</svg>
