<svg xmlns="http://www.w3.org/2000/svg" width="119.319" height="121.523" viewBox="0 0 119.319 121.523">
    <path d="M769.11 607.978a10.766 10.766 0 1 1-10.7 10.766 10.766 10.766 0 0 1 10.7-10.766zm-35.047 28.979c24.878 26.19 51.974 4.339 55.328.826 6.9-8.405 7.457-29.531-.755-40.034 1.865 35.79-16.866 40.756-29.385 32.185-15.58-12.2 3.978-37.293 23.666-20.6.229-4.814 1.432-25.306-.71-27.458-35.302-12.662-73.025 28.891-48.144 55.08zm55.553-45.215c3.613 2.355 12.935 20.009 8.39 37.768-3.041 9.6-13.373 25.208-40.936 23.949-29.158-1.071-49.637-31.99-25.259-60.791-2.944 1.885-37.6 12.622-37.6 12.622v84.778s34.512-13.462 41.2-23.417c0 5.386-.268 18.84 2.678 24.492s18.721 12.909 22.352 8.612 19.376-28.261 19.376-28.261 9.628-4.571 15.022-21.2c11.929-6.52 37.848-37.294-5.223-58.552z" transform="translate(-694.206 -579.532)" style="fill-rule:evenodd"/>
</svg>
