<svg xmlns="http://www.w3.org/2000/svg" width="105.001" height="134.78" viewBox="0 0 105.001 134.78">
    <defs>
        <style>
            .cls-1{fill:#ff5853}
        </style>
    </defs>
    <g id="icon" transform="translate(-2.054)">
        <path id="Path_1185" d="M87.579 24.755l-7.49-23.3-8.317 7.4L54.5 0l-.783 13.458-7.367-7.374-20.963 18.671H2.054v19.077h8.534l6.613 75.8a15.354 15.354 0 0 0 15.336 15.148h44.049a15.361 15.361 0 0 0 15.336-15.205l6.743-75.743h8.389V24.755zM38.91 66.44l15.88-15.872L70.67 66.44 54.79 82.32zm28.177 34.572L54.8 113.3l-12.29-12.283L54.8 88.73zM54.478 43.825h.631l-.312.319zM58 47.356l3.517-3.524h20.37l5.7 5.7-13.7 13.7zm25.77-22.6H65.014L62.353 22.1 78.334 7.86zm-25.98-19l11.072 5.685-9.078 8.078-2.637-2.639zM46.2 11.072l13.687 13.683h-29.04zM27.7 43.825h20.368l3.524 3.524-15.879 15.872L22 49.517zm-10.014 0h3.6L18.8 46.319l-.986-.979zm3 34.427l-2.2-25.211.312-.3 13.7 13.7zm15.024-8.614l15.88 15.88-12.281 12.29L23.43 81.921zm.39 31.382l-9.934 9.927-2.61-22.471zm-3.563 26.68a8.269 8.269 0 0 1-8.259-8.259l-.014-.174 1.436-1.436 9.869 9.869zm7.244-2.2L28.9 114.615l10.4-10.4L51.585 116.5l-8.991 8.991-2.813.007zm9.23 0l5.786-5.786 5.779 5.786zm17.982 0L58 116.508l12.283-12.283 10.405 10.4-10.881 10.881-2.813-.007zm17.859-6.323l-.007.261a8.269 8.269 0 0 1-8.259 8.259h-2.567l9.861-9.869 1 .993zm-1.428-8.23l-9.934-9.934 12.537-12.537zM70.285 97.815L58 85.525l15.88-15.88 12.285 12.283zm18.251-19.926L77.094 66.44l13.69-13.7zM91.4 45.7l-.609.616-2.491-2.491h3.27z" class="cls-1" data-name="Path 1185"/>
    </g>
</svg>
