<svg xmlns="http://www.w3.org/2000/svg" id="wedding-planning" width="34.922" height="33.677" viewBox="0 0 34.922 33.677">
    <defs>
        <style>
            .cls-1{fill:#606060}
        </style>
    </defs>
    <g id="Group_445">
        <path id="Path_808" d="M34.172 6.227H8.347a.75.75 0 0 0-.75.75V21.89H.75a.75.75 0 0 0-.75.75v12.715A4.554 4.554 0 0 0 4.549 39.9h25.824a4.554 4.554 0 0 0 4.549-4.549V6.977a.75.75 0 0 0-.75-.75zM1.5 35.355V23.39h6.1v11.965a3.048 3.048 0 1 1-6.1 0zm31.922 0a3.052 3.052 0 0 1-3.049 3.045H7.922A4.532 4.532 0 0 0 9.1 35.355V7.727h24.322v27.628z" class="cls-1"
            transform="translate(0 -6.227)"/>
        <path id="Path_809" d="M195.273 79.355h9.614a.75.75 0 1 0 0-1.5h-9.614a.75.75 0 0 0 0 1.5z" class="cls-1"
            transform="translate(-175.067 -70.691)"/>
        <path id="Path_810" d="M195.273 161.748h9.614a.75.75 0 1 0 0-1.5h-9.614a.75.75 0 0 0 0 1.5z" class="cls-1"
            transform="translate(-175.067 -144.843)"/>
        <path id="Path_811" d="M195.273 244.143h9.614a.75.75 0 1 0 0-1.5h-9.614a.75.75 0 0 0 0 1.5z" class="cls-1"
            transform="translate(-175.067 -218.997)"/>
        <path id="Path_812" d="M115.963 49.3a.751.751 0 0 0 .545.235h.006a.75.75 0 0 0 .548-.244l4.12-4.513a.75.75 0 0 0-1.108-1.012l-3.574 3.919-1.113-1.179a.75.75 0 0 0-1.091 1.03z" class="cls-1"
            transform="translate(-102.68 -39.794)"/>
        <path id="Path_813" d="M120.075 129.742l-3.576 3.916-1.113-1.178a.75.75 0 1 0-1.091 1.03l1.668 1.766a.751.751 0 0 0 .545.235h.006a.75.75 0 0 0 .548-.244l4.12-4.513a.75.75 0 1 0-1.108-1.012z" class="cls-1"
            transform="translate(-102.68 -117.168)"/>
        <path id="Path_814" d="M120.075 215.715l-3.576 3.916-1.113-1.179a.75.75 0 0 0-1.091 1.03l1.668 1.766a.751.751 0 0 0 .545.235h.006a.75.75 0 0 0 .548-.244l4.12-4.513a.75.75 0 1 0-1.108-1.012z" class="cls-1"
            transform="translate(-102.68 -194.543)"/>
    </g>
</svg>
