<svg xmlns="http://www.w3.org/2000/svg" width="70.839" height="61.003" viewBox="0 0 70.839 61.003">
  <defs>
  </defs>
  <g id="Group_54" data-name="Group 54" transform="translate(-2 -91)">
    <g id="Icon_ionic-ios-menu" data-name="Icon ionic-ios-menu" transform="translate(2 91)">
      <path id="Path_5" data-name="Path 5" class="cls-1" d="M72.388,18.84H7.452c-1.623,0-2.952-1.961-2.952-4.357h0c0-2.4,1.328-4.357,2.952-4.357H72.388c1.623,0,2.952,1.961,2.952,4.357h0C75.339,16.879,74.011,18.84,72.388,18.84Z" transform="translate(-4.5 -10.125)"/>
      <path id="Path_6" data-name="Path 6" class="cls-1" d="M72.388,25.59H7.452c-1.623,0-2.952-1.961-2.952-4.357h0c0-2.4,1.328-4.357,2.952-4.357H72.388c1.623,0,2.952,1.961,2.952,4.357h0C75.339,23.629,74.011,25.59,72.388,25.59Z" transform="translate(-4.5 9.269)"/>
      <path id="Path_7" data-name="Path 7" class="cls-1" d="M72.388,32.34H7.452c-1.623,0-2.952-1.961-2.952-4.357h0c0-2.4,1.328-4.357,2.952-4.357H72.388c1.623,0,2.952,1.961,2.952,4.357h0C75.339,30.379,74.011,32.34,72.388,32.34Z" transform="translate(-4.5 28.663)"/>
    </g>
  </g>
</svg>
