<svg xmlns="http://www.w3.org/2000/svg" width="44.873" height="44.873" viewBox="0 0 44.873 44.873">
    <g data-name="860763">
        <g data-name="Group 531">
            <g data-name="Group 530">
                <path data-name="Path 979" d="M36.86 53.368a1.6 1.6 0 0 0-1.6 1.6V71a1.6 1.6 0 0 1-1.6 1.6H4.808a1.6 1.6 0 0 1-1.6-1.6V38.945a1.6 1.6 0 0 1 1.6-1.6h19.231a1.6 1.6 0 1 0 0-3.205H4.808A4.808 4.808 0 0 0 0 38.945V71a4.808 4.808 0 0 0 4.808 4.8h28.846a4.808 4.808 0 0 0 4.808-4.8V54.971a1.6 1.6 0 0 0-1.602-1.603z" transform="translate(0 -30.932)" style="fill:#9e1f63"/>
            </g>
        </g>
        <g data-name="Group 533">
            <g data-name="Group 532">
                <path data-name="Path 980" d="M135.869 1.8a6.134 6.134 0 0 0-8.677 0l-21.109 21.11a1.62 1.62 0 0 0-.386.627l-3.205 9.616a1.6 1.6 0 0 0 1.519 2.109 1.628 1.628 0 0 0 .506-.082l9.616-3.205a1.6 1.6 0 0 0 .627-.388l21.109-21.109a6.135 6.135 0 0 0 0-8.678z" transform="translate(-92.793 -.004)" style="fill:#9e1f63"/>
            </g>
        </g>
    </g>
</svg>
