<svg xmlns="http://www.w3.org/2000/svg" width="183.56" height="130.06" viewBox="0 0 183.56 130.06">
    <path data-name="Path 1" d="m35.84 100.94 13.44 21.44c3.04 4.8 5.92 7.68 10.72 7.68 7.52 0 11.84-5.28 11.84-10.88a10.857 10.857 0 0 0-2.24-7.04L51.52 85.26l16.96-25.12a13.056 13.056 0 0 0 2.4-7.84c0-5.28-5.12-10.08-10.56-10.08-3.68 0-7.2.96-10.72 6.88L36.96 69.74l-13.12-21.6c-2.72-4.48-5.76-5.92-9.44-5.92A12 12 0 0 0 1.92 53.9a10.676 10.676 0 0 0 2.4 6.08l16.8 25.28-17.92 26.4C1.12 114.7 0 117.1 0 119.18c0 6.4 5.76 10.88 11.36 10.88a10.894 10.894 0 0 0 9.12-4.64zm81.84 4.36c2.34-6.84 14.76-14.22 35.1-25.74 19.08-10.8 30.06-20.16 30.06-44.1 0-16.56-17.1-35.46-45.9-35.46-26.46 0-48.06 16.74-48.06 38.7 0 9 5.76 12.06 13.14 12.06 7.2 0 9.54-3.42 11.34-10.08 3.96-14.4 11.7-19.08 23.22-19.08 9.9 0 18.9 6.48 18.9 18.18 0 14.58-8.64 17.82-33.66 33.66-22.5 14.22-33.84 28.44-33.84 41.22 0 6.3 4.32 13.32 14.76 13.32h67.5c8.28 0 13.32-3.24 13.32-11.34s-5.04-11.34-11.88-11.34z"/>
</svg>
