<svg xmlns="http://www.w3.org/2000/svg" width="182.019" height="223.773" viewBox="0 0 182.019 223.773">
    <path data-name="Union 3" d="M87.655 222.981C84.076 221.192 0 178.389 0 111.887V38.816a7.5 7.5 0 0 1 4.867-7.023L88.376.477a7.494 7.494 0 0 1 5.267 0l83.509 31.316a7.5 7.5 0 0 1 4.866 7.023v73.071c0 66.5-84.076 109.3-87.655 111.094a7.5 7.5 0 0 1-3.354.792 7.492 7.492 0 0 1-3.354-.792zM15 44.013v67.873c0 50.365 60.892 87.446 76.009 95.872 15.117-8.426 76.009-45.507 76.009-95.872V44.013l-76.009-28.5zm39.278 106.695c-1.379 0-3.278-.578-3.278-1.8V97.091c0-1.217 1.9-3.379 3.278-3.379h4.865V76.141C59.143 64.583 70.278 53 81.83 53h19.3c11.559 0 23.153 11.583 23.153 23.141v17.572h4.4c1.382 0 3.746 2.162 3.746 3.379v51.822c0 1.218-2.363 1.8-3.746 1.8zm27.382-36.787a10.526 10.526 0 0 0 4.122 8.356l-4.122 20.289h19.645l-4.117-20.232c2.488-1.767 4.117-5.479 4.117-8.746a9.692 9.692 0 0 0-9.823-9.629 9.973 9.973 0 0 0-9.822 9.963zM73.392 76.14v17.572h36.64V76.141c0-5.248-3.912-8.891-9.1-8.891H82.024c-5.186 0-8.632 3.643-8.632 8.891z"/>
</svg>
