<svg xmlns="http://www.w3.org/2000/svg" width="114.278" height="115.627" viewBox="0 0 114.278 115.627">
    <path d="M949.242 393.685c5.26-6.589 12.567-52.705-23.967-68.275s-54.068 7.79-53.775 17.369c-12.275 4.487-14.911 18.566-14.911 18.566s-17.828 8.983-17.242 19.763 13.444 11.379 13.444 11.379l3.9 5.488.777-5.488s19.213-9.086 20.094-1.146-16.874 10.728-16.874 10.728l-3.6-2.7 1.094 5.031a3.579 3.579 0 0 0-2.169 5.147c3.508 5.989 15.2-2.1 15.2-2.1s-9.052 35 16.946 27.249c-16.075-8.384-1.461-21.259-1.461-21.259s3.215 33.538 35.072 13.176c-25.135 2.694-19.378-10.285-16.661-13.176s16.661-17.749 16.661-17.749 7.307 11.164-10.521 24.849c23.38 6.388 24.549-37.332 24.549-37.332s5.553 20.962-9.072 35.041c33.317-7.494 16.659-50.307 16.659-50.307s6.143 2.085 5.857 25.746zm-88-33.54a3.414 3.414 0 0 1 2.728-4.191 27.2 27.2 0 0 1 9.567 2.526c1.774.967-11.729 3.837-12.292 1.666z" transform="translate(-839.331 -320.198)" style="fill-rule:evenodd"/>
</svg>
