<svg xmlns="http://www.w3.org/2000/svg" width="125.192" height="117.328" viewBox="0 0 125.192 117.328">
    <path d="M287.907 651.948a4.141 4.141 0 0 0-2.564-3.824h-46.479a4.141 4.141 0 0 0-2.564 3.824 25.805 25.805 0 1 0 51.611 0zm71.025-3.824h-46.494a4.141 4.141 0 0 0-2.564 3.824 25.809 25.809 0 1 0 51.618 0 4.141 4.141 0 0 0-2.561-3.816zm-39.624 41.247h-16.293v-80.358h26.415l-14.081 32.915h8.973l11.363-26.559 11.361 26.559h8.973l-14.744-34.461a10.949 10.949 0 0 0-5.593-20.35 4.142 4.142 0 0 0 0 8.263 2.686 2.686 0 0 1 0 5.37h-32.667v-16.317a4.124 4.124 0 0 0-8.247 0v16.319H262.1a2.686 2.686 0 0 1 0-5.37 4.141 4.141 0 0 0 0-8.263 10.949 10.949 0 0 0-5.593 20.35l-14.744 34.461h8.975l11.362-26.557 11.361 26.557h8.973l-14.081-32.915h26.415v80.358h-16.29a4.141 4.141 0 0 0 0 8.263H319.3a4.141 4.141 0 0 0 .006-8.265z" transform="translate(-236.3 -580.309)" style="fill-rule:evenodd"/>
</svg>
