<svg xmlns="http://www.w3.org/2000/svg" width="126.376" height="115.576" viewBox="0 0 126.376 115.576">
    <path d="M1094.871 638.933s4.181-1.708 14.574-.343c-.809-6.264-21.891-5.486-23.942-6.6s-32.5-18.568-40.961-10.255 22.226 27.574 24.375 29.152-5.088 13.332 7.672 18.457c-.789-7.857-.789-9.228.572-10.592 0 0 16.921 19.7 5.976 23.011-9.368 2.388-24.494.677-24.494.677s-13.647-19.589-20.214-16.854c3.629 6.721 8.145 18.266 8.145 18.266a74.382 74.382 0 0 0-14.909 10.551c6.212 3.984 22.009-6.833 30.016-4.441 24.04 8.66 41.434-8.541 43.466-26.2s-10.276-24.829-10.276-24.829zm-49.678 14.967c9.486-7.1-18.42-30.3-20.333-32.171s6.784-12.529-5.167-19.327c-.256 7.888-.434 9.253-1.972 10.429 0 0-14.182-21.806-2.893-23.612 9.6-1.114 24.37 2.607 24.37 2.607s10.946 21.252 17.809 19.419c-2.7-7.145-5.66-19.187-5.66-19.187a74.021 74.021 0 0 0 16.153-8.458c-5.62-4.786-22.7 3.822-30.331.373-22.68-11.807-42.184 2.913-46.521 20.137s6.9 25.987 6.9 25.987-4.366 1.14-14.479-1.611c-.04 6.311 20.972 8.372 22.847 9.756s29.791 22.77 39.277 15.664z" transform="translate(-983.069 -579.712)" style="fill-rule:evenodd"/>
</svg>
