<svg xmlns="http://www.w3.org/2000/svg" width="121.225" height="121.311" viewBox="0 0 121.225 121.311">
    <path d="m643.208 679.169-.911-68.417a6.936 6.936 0 0 0 2.268-1.511c3.747-4.28 5.6-21.723-5.045-24.543s-9.882 9.872-9.861 11.284c5.786-4.159 6.826.444 5.719 4.228s-23.991-3.489-33.507 5.268c-7.593 6.993-12.15 23.167-13.669 29.4l-25.989-24.721 10.036-3.723-33.306-11.674 12.622 32.855 3.915-12.675 25.267 24.17c-7.386 2.073-18.812 6.09-24.454 12.259-8.719 9.557-1.475 32.54-5.244 33.652s-8.354.065-4.212-5.751c-1.406-.026-14.044-.789-11.241 9.9 2.406 9.157 15.468 9.094 21.855 6.53H633.9l11.48 9.9 2.136-9.3 8.9-1.994zm-28.718-61.03c3.329-2.351 15.154-3.7 23.1-5.8l.866 65.429-6.3-1.073-35.24-33.514c3.473-5.737 13.684-22.306 17.574-25.042zm-52.549 72.8c2.834-7.332 4.2-22.987 6.948-26.914 2.3-3.28 14.442-11.123 21.613-15.58l36.465 34.875 1.033 7.31.375.315H561.94z" transform="translate(-535.19 -584.29)" style="fill-rule:evenodd"/>
</svg>
