<svg xmlns="http://www.w3.org/2000/svg" width="85.094" height="153.126" viewBox="0 0 85.094 153.126">
    <path d="M420.912 641.717c.172-5.114-2.357-10.014-7.778-10.326-9.622.292-18.984 15.116-19.36 18.311.678.475 14.988-13.627 17.676-13.588a11.864 11.864 0 0 1 9.462 5.6zm-7.34 7.474c2.781.061 8.634 8.593 8.188 6.177s-1.422-12.058-8.176-11.364-15.3 16.828-14.971 19.721c1.36-.644 12.174-14.596 14.958-14.533zm.211 11.746c-5.585.714-11.813 12.487-10.912 15.383 1.56-1.077 9.186-10.971 13.213-11.194s8.776 4.593 8.648 2.879-5.367-7.787-10.95-7.067zm37.954-19.224a11.891 11.891 0 0 1 9.454-5.607c2.676-.032 17.006 14.057 17.676 13.592-.377-3.2-9.738-18.025-19.36-18.317-5.418.319-7.95 5.213-7.771 10.332zm6.568 2.287c-6.758-.694-7.731 8.952-8.174 11.364s5.408-6.114 8.186-6.177 13.588 13.894 14.959 14.531c.331-2.9-8.214-19.019-14.961-19.717zm-1.069 16.933c-5.585-.72-10.833 5.342-10.955 7.06s4.611-3.1 8.646-2.879 11.655 10.115 13.213 11.2c.911-2.885-5.327-14.655-10.9-15.376zm-35.22-40.375a29.918 29.918 0 0 1 3.4-5.617c-4.506-2.122-6.967-8.545-6.967-8.545s18.221-15.994 4.23-28.521c1.913 8.916-2.71 15.217-6.857 14.073s-5.287-22.531 2.85-25.269c-22.583 0-13.673 28.148-11.068 33.544s14.412 20.335 14.412 20.335zm30.87-14.162s-2.461 6.423-6.975 8.545a29.6 29.6 0 0 1 3.408 5.617s11.809-14.935 14.41-20.335 11.515-33.544-11.068-33.544c8.139 2.737 7 24.135 2.854 25.269s-8.774-5.157-6.849-14.073c-14 12.509 4.22 28.511 4.22 28.511zm-4.909 108.027c-2.183-.154-6.009-6.1-6.323-12.882s-1.591-26.006 1.507-36.9c0 0 5.477-25.653 5.082-30.712l-5.149-5.82s5.277 1.363 5.169-3.522-4.816-11.139-9-11.044c.667-1.073 7.007-8.125 0-9.593 1.852 4.128-2.112 8.263-3.832 8s-4.09-3.471-4.883-8c-5.279 3.067.316 7.555 1.455 8.66-4.487.846-9.123 7.64-8.626 11.279s6.114 3.85 6.114 3.85a71.11 71.11 0 0 1-6.114 5.887c.272 3.467 3.944 24.961 4.569 29.663 0 .028.024.059.028.087 6.544 42.4 12.862 51.63 16.621 54.874 5.185 4.536 20.368-1.079 7.812-13.448 1.773 5.35-.6 9.831-4.433 9.616z" transform="translate(-393.773 -566.68)" style="fill-rule:evenodd"/>
</svg>
