<svg xmlns="http://www.w3.org/2000/svg" width="128.985" height="131.217" viewBox="0 0 128.985 131.217">
    <path d="M509.348 312.576s-26.427 53.839-42.312 43.055c-4.709-3.031-10.018-4.118-20.179-4.035s-10.121 1.242-21.55 4.019C402.056 361.11 383 312.56 383 312.56s-7.989 63.631 32.98 70.01c1.71-.542-3.465 9.727 2.8 19.694s11.007 10.584 10.237 18.633c.225 4.93 4.733 21.463 16.878 22.863a.833.833 0 0 1 .57.018c12.144-1.4 17.574-18.556 16.881-22.877-.779-8.048 4.212-8.283 10.47-18.232s.355-17.893 2.564-20.088c47.183-8.974 32.968-70.005 32.968-70.005zm-74.835 86.117c-1.617-.866-12.651-7.948-10.356-10.622s13.882 6.135 14.744 7.159-2.775 4.337-4.388 3.463zm8.593 41.75c-1.907-.122-4.2-4.339-2.958-6.254s2.94-1.4 2.94 0 1.939 6.386.018 6.253zm6.143.018c-1.919.126.03-4.853.03-6.254s1.71-1.911 2.942 0-1.067 6.129-2.972 6.253zm8.6-41.752c-1.615.876-5.232-2.444-4.392-3.471s12.443-9.838 14.743-7.159-8.733 9.756-10.354 10.629z" transform="translate(-382.372 -312.56)" style="fill-rule:evenodd"/>
</svg>
