<svg xmlns="http://www.w3.org/2000/svg" width="93.28" height="134.121" viewBox="0 0 93.28 134.121">
    <path d="M1089.607 355.133c-4.6-16.554-11.143-39.7-45.832-39.119-6.607 2.15 18.636 4.469 16.566 12.6-11.6-6.589-18.42-10.991-26.6-10.255a12.4 12.4 0 0 0-11.379 13.016c6.607 3.432 15.146 30.454 17.887 36.165s7.514 14.44 12.424 17.077-6.784 19.41-16.724 19.844-34.984 11.109-38.007 25.046c6.1-7.058 30.119-19.461 40.472-19.092s20.254-11.33 21.91-14.663c.453 15.077-14.752 20.966-25.441 21.22-15.4.262-38.5 14.72-35.755 23.565 2.879-7.608 22.187-16.54 34.966-17.134a53.88 53.88 0 0 0 30.746-12.391c-2.958 11.833-14.042 16.083-26.821 18.325s-38.445 9.206-38.05 20.79c4.958-7.2 27.716-14.059 52.289-15.627s44.942-50.5 37.349-79.367zm-28.675-32.181s20.135 11.1 10.176 28.9c2.209-17.44-10.176-28.9-10.176-28.9zm14.081 12.395s21.95 29.815-3.9 44.463c15.987-19.924 3.9-44.463 3.9-44.463zm-63.029 38.693a16.432 16.432 0 0 1-1.262 5.271c-.3 1.244-2.012.789-1.795 2.564a3.51 3.51 0 0 0 2.386 2.424 3.057 3.057 0 0 0-1.558 2.272c.375 2.272 4.6.369 4.891 1.248s.237.175-.02 2-3.609 2.4-1.6 7.007c2.623 6.066 30.45 2.564 37.135-9.59-23.922-21.252-24.435-52.459-29.207-51.867s-8.914 20.216-9.052 24.76-4.97 7.4-5.581 10.912 4.459 2.041 5.662 2.999zm1.321-16.215c.315-.826 7.06 1.27 7.06 2.215s-4.97 1.1-6.153.958c-.414-.053-1.874-.564-.907-3.173z" transform="translate(-997.938 -316.003)" style="fill-rule:evenodd"/>
</svg>
