<svg xmlns="http://www.w3.org/2000/svg" width="70.612" height="65.446" viewBox="0 0 70.612 65.446">
    <g data-name="Group 2662">
        <path data-name="Path 130" d="M61.235 11.25H13.127A9.759 9.759 0 0 0 3.375 21v27.3a9.759 9.759 0 0 0 9.752 9.752h48.108a9.759 9.759 0 0 0 9.752-9.752V21a9.759 9.759 0 0 0-9.752-9.75z" transform="translate(-1.875 5.887)" style="fill:none;stroke:#fff;stroke-width:3px"/>
        <path data-name="Path 131" d="m49.829 4.664-38.178 7.46c-2.926.65-7.151 3.592-7.151 7.168 0 0 2.438-3.088 7.964-3.088H59.11v-3.333a9.333 9.333 0 0 0-2.26-6.111 7.686 7.686 0 0 0-7.021-2.096z" transform="translate(-.399 -2.966)" style="fill:none;stroke:#fff;stroke-width:3px"/>
    </g>
</svg>
